<?xml version="1.0" encoding="UTF-8"?><svg id="Layer_1" xmlns="http://www.w3.org/2000/svg" xmlns:xlink="http://www.w3.org/1999/xlink" viewBox="0 0 294.13 272.79"><defs><style>.cls-1{fill:#faaf3b;}.cls-2{fill:#02518a;}.cls-3{fill:#fbed21;}.cls-4{fill:#666;}.cls-5{fill:#cbcbcb;}.cls-6{fill:#0f7bbb;}.cls-7{fill:#24a4d5;}.cls-8{filter:url(#drop-shadow-5);}.cls-8,.cls-9,.cls-10,.cls-11,.cls-12,.cls-13,.cls-14,.cls-15,.cls-16,.cls-17{fill:#b2b2b2;}.cls-9{filter:url(#drop-shadow-9);}.cls-10{filter:url(#drop-shadow-4);}.cls-11{filter:url(#drop-shadow-7);}.cls-12{filter:url(#drop-shadow-1);}.cls-13{filter:url(#drop-shadow-8);}.cls-14{filter:url(#drop-shadow-2);}.cls-15{filter:url(#drop-shadow-3);}.cls-18{fill:#f1f1f1;filter:url(#drop-shadow-6);}.cls-16{filter:url(#drop-shadow-11);}.cls-17{filter:url(#drop-shadow-10);}</style><filter id="drop-shadow-1" filterUnits="userSpaceOnUse"><feOffset dx="3" dy="3"/><feGaussianBlur result="blur" stdDeviation="9"/><feFlood flood-color="#000" flood-opacity=".75"/><feComposite in2="blur" operator="in"/><feComposite in="SourceGraphic"/></filter><filter id="drop-shadow-2" filterUnits="userSpaceOnUse"><feOffset dx="3" dy="3"/><feGaussianBlur result="blur-2" stdDeviation="9"/><feFlood flood-color="#000" flood-opacity=".75"/><feComposite in2="blur-2" operator="in"/><feComposite in="SourceGraphic"/></filter><filter id="drop-shadow-3" filterUnits="userSpaceOnUse"><feOffset dx="3" dy="3"/><feGaussianBlur result="blur-3" stdDeviation="9"/><feFlood flood-color="#000" flood-opacity=".75"/><feComposite in2="blur-3" operator="in"/><feComposite in="SourceGraphic"/></filter><filter id="drop-shadow-4" filterUnits="userSpaceOnUse"><feOffset dx="3" dy="3"/><feGaussianBlur result="blur-4" stdDeviation="9"/><feFlood flood-color="#000" flood-opacity=".75"/><feComposite in2="blur-4" operator="in"/><feComposite in="SourceGraphic"/></filter><filter id="drop-shadow-5" filterUnits="userSpaceOnUse"><feOffset dx="3" dy="3"/><feGaussianBlur result="blur-5" stdDeviation="9"/><feFlood flood-color="#000" flood-opacity=".75"/><feComposite in2="blur-5" operator="in"/><feComposite in="SourceGraphic"/></filter><filter id="drop-shadow-6" filterUnits="userSpaceOnUse"><feOffset dx="3" dy="3"/><feGaussianBlur result="blur-6" stdDeviation="9"/><feFlood flood-color="#000" flood-opacity=".75"/><feComposite in2="blur-6" operator="in"/><feComposite in="SourceGraphic"/></filter><filter id="drop-shadow-7" filterUnits="userSpaceOnUse"><feOffset dx="3" dy="3"/><feGaussianBlur result="blur-7" stdDeviation="9"/><feFlood flood-color="#000" flood-opacity=".75"/><feComposite in2="blur-7" operator="in"/><feComposite in="SourceGraphic"/></filter><filter id="drop-shadow-8" filterUnits="userSpaceOnUse"><feOffset dx="3" dy="3"/><feGaussianBlur result="blur-8" stdDeviation="9"/><feFlood flood-color="#000" flood-opacity=".75"/><feComposite in2="blur-8" operator="in"/><feComposite in="SourceGraphic"/></filter><filter id="drop-shadow-9" filterUnits="userSpaceOnUse"><feOffset dx="3" dy="3"/><feGaussianBlur result="blur-9" stdDeviation="9"/><feFlood flood-color="#000" flood-opacity=".75"/><feComposite in2="blur-9" operator="in"/><feComposite in="SourceGraphic"/></filter><filter id="drop-shadow-10" filterUnits="userSpaceOnUse"><feOffset dx="3" dy="3"/><feGaussianBlur result="blur-10" stdDeviation="9"/><feFlood flood-color="#000" flood-opacity=".75"/><feComposite in2="blur-10" operator="in"/><feComposite in="SourceGraphic"/></filter><filter id="drop-shadow-11" filterUnits="userSpaceOnUse"><feOffset dx="3" dy="3"/><feGaussianBlur result="blur-11" stdDeviation="9"/><feFlood flood-color="#000" flood-opacity=".75"/><feComposite in2="blur-11" operator="in"/><feComposite in="SourceGraphic"/></filter></defs><g><polygon class="cls-4" points="13.07 86.7 13.01 45.98 24.36 29.63 68.2 29.63 93.42 0 294.13 0 294.13 3.15 94.88 3.15 69.65 32.78 26.01 32.78 16.16 46.96 16.22 86.69 13.07 86.7"/><rect class="cls-4" x="13.12" y="107.57" width="3.15" height="49.34" transform="translate(-.13 .02) rotate(-.06)"/><polygon class="cls-4" points="98.59 266.94 37.93 266.94 13.23 242.23 13.16 174.24 16.31 174.24 16.38 240.93 39.24 263.79 98.59 263.79 98.59 266.94"/><polygon class="cls-4" points="250.35 266.94 172.82 266.94 172.82 263.79 249.09 263.79 268.65 245.12 294.13 245.12 294.13 248.27 269.91 248.27 250.35 266.94"/><rect class="cls-12" x="41.25" y="50.23" width="36.45" height="31.11" rx="2" ry="2"/><rect class="cls-14" x="92.81" y="50.23" width="36.45" height="31.11" rx="2" ry="2"/><rect class="cls-15" x="144.38" y="50.23" width="36.45" height="31.11" rx="2" ry="2"/><rect class="cls-10" x="41.25" y="98.68" width="36.45" height="31.11" rx="2" ry="2"/><rect class="cls-8" x="92.81" y="98.68" width="36.45" height="31.11" rx="2" ry="2"/><rect class="cls-18" x="144.38" y="98.68" width="36.45" height="31.11" rx="2" ry="2"/><rect class="cls-11" x="41.25" y="162.68" width="36.45" height="64.45" rx="2" ry="2"/><rect class="cls-13" x="92.81" y="162.68" width="36.45" height="64.45" rx="2" ry="2"/><rect class="cls-9" x="144.38" y="162.68" width="36.45" height="64.45" rx="2" ry="2"/><rect class="cls-17" x="196.38" y="162.68" width="36.45" height="64.45" rx="2" ry="2"/><rect class="cls-16" x="196.38" y="63.13" width="36.45" height="64.45" rx="2" ry="2"/><g><path class="cls-5" d="M115.94,265.18h-3.53v2.28h3.94v1.78h-6.12v-9.58h5.92v1.78h-3.74v1.99h3.53v1.76Z"/><path class="cls-5" d="M117.76,264.5c0-.87-.03-1.61-.06-2.22h1.88l.1,.95h.04c.28-.44,1-1.11,2.15-1.11,1.42,0,2.49,.94,2.49,2.99v4.12h-2.16v-3.85c0-.9-.31-1.51-1.1-1.51-.6,0-.95,.41-1.09,.81-.06,.13-.08,.34-.08,.54v4.01h-2.16v-4.74Z"/><path class="cls-5" d="M128.43,260.29v1.99h1.55v1.59h-1.55v2.52c0,.84,.2,1.22,.85,1.22,.27,0,.48-.03,.64-.06v1.63c-.27,.11-.78,.19-1.39,.19-.7,0-1.28-.24-1.62-.6-.4-.41-.6-1.08-.6-2.06v-2.84h-.92v-1.59h.92v-1.51l2.12-.48Z"/><path class="cls-5" d="M131.23,264.57c0-1.02-.03-1.69-.06-2.29h1.86l.07,1.28h.06c.36-1.01,1.21-1.44,1.88-1.44,.2,0,.3,0,.46,.03v2.03c-.16-.03-.34-.06-.58-.06-.8,0-1.34,.43-1.48,1.09-.03,.14-.04,.31-.04,.48v3.53h-2.16v-4.67Z"/><path class="cls-5" d="M140.43,269.24l-.13-.7h-.04c-.46,.55-1.17,.85-1.99,.85-1.41,0-2.25-1.02-2.25-2.13,0-1.81,1.62-2.67,4.08-2.66v-.1c0-.37-.2-.9-1.27-.9-.71,0-1.46,.24-1.92,.53l-.4-1.39c.48-.27,1.44-.61,2.7-.61,2.32,0,3.06,1.37,3.06,3v2.42c0,.67,.03,1.31,.1,1.69h-1.95Zm-.26-3.29c-1.14-.01-2.02,.26-2.02,1.09,0,.55,.37,.83,.85,.83,.54,0,.98-.36,1.12-.8,.03-.11,.04-.24,.04-.37v-.75Z"/><path class="cls-5" d="M143.99,264.5c0-.87-.03-1.61-.06-2.22h1.88l.1,.95h.04c.28-.44,1-1.11,2.15-1.11,1.42,0,2.49,.94,2.49,2.99v4.12h-2.16v-3.85c0-.9-.31-1.51-1.1-1.51-.6,0-.95,.41-1.09,.81-.06,.13-.08,.34-.08,.54v4.01h-2.16v-4.74Z"/><path class="cls-5" d="M157.55,269.07c-.38,.17-1.11,.31-1.93,.31-2.25,0-3.68-1.37-3.68-3.56,0-2.03,1.39-3.7,3.98-3.7,.57,0,1.19,.1,1.65,.27l-.34,1.61c-.26-.11-.64-.21-1.21-.21-1.14,0-1.88,.81-1.86,1.95,0,1.28,.85,1.95,1.91,1.95,.51,0,.91-.09,1.24-.21l.26,1.59Z"/><path class="cls-5" d="M160.25,266.45c.07,.9,.95,1.32,1.96,1.32,.74,0,1.34-.1,1.92-.28l.28,1.46c-.71,.28-1.58,.43-2.52,.43-2.36,0-3.71-1.37-3.71-3.54,0-1.76,1.09-3.71,3.51-3.71,2.25,0,3.1,1.75,3.1,3.47,0,.37-.04,.7-.07,.85h-4.48Zm2.55-1.48c0-.53-.23-1.41-1.22-1.41-.91,0-1.28,.82-1.34,1.41h2.56Z"/></g><g><path class="cls-3" d="M145.01,142.3l.33-1.66h-1.59v-1.8h1.96l.47-2.34h1.86l-.47,2.34h1.43l.47-2.34h1.85l-.47,2.34h.91v1.8h-1.27l-.33,1.66h1.6v1.8h-1.96l-.46,2.3h-1.86l.46-2.3h-1.44l-.46,2.3h-1.85l.46-2.3h-.9v-1.8h1.26Zm1.85,0h1.44l.33-1.66h-1.44l-.33,1.66Z"/><path class="cls-3" d="M154.65,139.43l-2.52-.45c.21-.8,.61-1.42,1.21-1.84s1.44-.64,2.53-.64c1.25,0,2.15,.23,2.71,.7s.84,1.05,.84,1.76c0,.41-.11,.79-.34,1.12-.23,.33-.57,.63-1.03,.88,.37,.09,.65,.2,.85,.32,.32,.2,.56,.45,.74,.77,.18,.32,.26,.7,.26,1.15,0,.56-.15,1.09-.44,1.6s-.71,.91-1.26,1.18c-.55,.28-1.27,.42-2.16,.42s-1.56-.1-2.06-.31c-.5-.21-.92-.5-1.24-.9-.33-.39-.57-.89-.75-1.49l2.66-.35c.1,.54,.27,.91,.49,1.11s.5,.31,.84,.31c.36,0,.65-.13,.89-.39,.24-.26,.36-.61,.36-1.04s-.11-.79-.34-1.03c-.23-.24-.54-.37-.93-.37-.21,0-.5,.05-.86,.16l.14-1.9c.15,.02,.26,.03,.35,.03,.35,0,.64-.11,.87-.33,.23-.22,.35-.49,.35-.79s-.09-.52-.26-.7c-.17-.17-.41-.26-.72-.26s-.57,.09-.76,.28-.33,.52-.4,1Z"/><path class="cls-3" d="M166.36,136.5v9.74h-2.69v-6.38c-.44,.33-.86,.6-1.26,.8s-.92,.4-1.53,.59v-2.18c.91-.29,1.61-.64,2.11-1.05,.5-.41,.89-.91,1.18-1.52h2.2Z"/><path class="cls-3" d="M169.66,136.66h6.32v2.12h-4.28l-.23,1.44c.3-.14,.59-.24,.88-.31,.29-.07,.58-.11,.86-.11,.96,0,1.74,.29,2.33,.87,.6,.58,.89,1.31,.89,2.19,0,.62-.15,1.21-.46,1.78-.31,.57-.74,1.01-1.31,1.31-.56,.3-1.29,.45-2.17,.45-.63,0-1.17-.06-1.62-.18-.45-.12-.83-.3-1.15-.54-.32-.24-.57-.51-.77-.81s-.36-.67-.49-1.12l2.69-.29c.07,.43,.22,.76,.46,.98,.24,.22,.53,.34,.86,.34,.37,0,.68-.14,.92-.42,.24-.28,.36-.7,.36-1.26s-.12-.99-.37-1.25-.57-.4-.97-.4c-.26,0-.5,.06-.74,.19-.18,.09-.38,.26-.59,.5l-2.27-.33,.84-5.15Z"/></g><g><path class="cls-6" d="M171.07,112.68v9.43l2.72-1.54-.06-14.76-10.45,4.46v16.26s3.2-1.82,3.2-1.82v-9.78c-.3-.12-.52-.39-.52-.71,0-.42,.39-.76,.86-.76s.86,.34,.86,.76c0,.25-.13,.46-.33,.61v9.38l2.84-1.62v-9.88c-.28-.13-.46-.39-.46-.68,0-.42,.39-.77,.86-.77s.86,.34,.86,.77c0,.27-.15,.5-.38,.64"/><path class="cls-2" d="M151.41,115.34l7.01,3.19c.15-.1,.33-.17,.53-.17,.47,0,.86,.34,.86,.77s-.39,.77-.86,.77c-.43,0-.78-.28-.85-.64l-6.7-3.05v4.46l11.86,5.86v-10.73s-6.96-3.12-6.96-3.12c-.14,.08-.29,.12-.46,.12-.48,0-.86-.34-.86-.77s.38-.77,.86-.77c.45,0,.83,.32,.86,.72l6.57,2.94v-4.65s-11.86-4.52-11.86-4.52v9.59"/><polyline class="cls-7" points="151.41 105.76 162.56 101.93 173.73 105.82 163.28 110.28 151.41 105.76"/></g></g><g><rect class="cls-1" x="135.14" y="190.87" width="3" height="62.08"/><polygon class="cls-1" points="144.12 193.05 136.64 180.1 129.16 193.05 144.12 193.05"/></g><g><polygon class="cls-1" points="31.43 166.92 0 166.92 0 163.92 28.43 163.92 28.43 144.74 48.09 144.74 48.09 147.74 31.43 147.74 31.43 166.92"/><polygon class="cls-1" points="45.9 153.72 58.86 146.24 45.9 138.76 45.9 153.72"/></g></svg>